<svg width="199" height="252" viewBox="0 0 199 252" fill="none" xmlns="http://www.w3.org/2000/svg">
<path d="M99.4002 5.02119H99.3952C95.9493 5.02335 92.6025 7.57626 89.9695 12.2087C87.084 17.2858 85.4977 24.0896 85.5028 31.3667C85.5085 38.6424 87.1055 45.444 89.9989 50.5176C92.6376 55.1428 95.9866 57.69 99.4303 57.69H99.4353C102.881 57.6871 106.228 55.1349 108.861 50.5032C111.746 45.4254 113.333 38.6209 113.327 31.3452C113.321 24.0695 111.725 17.2672 108.832 12.1943C106.193 7.56838 102.844 5.02119 99.4002 5.02119ZM99.4296 62.7112C94.1048 62.7119 89.2069 59.2652 85.6362 53.0052C82.3181 47.1871 80.4872 39.5032 80.4807 31.3703C80.475 23.2367 82.2944 15.5506 85.6039 9.72749C89.1667 3.45817 94.0632 0.00358657 99.3909 0H99.4009C104.726 0 109.624 3.44669 113.194 9.70669C116.512 15.5241 118.343 23.208 118.349 31.3409C118.355 39.4745 116.537 47.1605 113.227 52.9837C109.664 59.253 104.767 62.7069 99.4397 62.7112H99.4296Z" fill="white"/>
<path d="M97.9281 5.44853L96.3649 0.676239C97.8062 0.204964 99.2798 -0.00449115 100.766 0.0557632L100.885 0.0615082L100.715 2.58717L100.667 5.07625L100.585 5.07338C99.6966 5.03464 98.8077 5.16089 97.9281 5.44853ZM105.66 7.23608C104.875 6.57329 104.056 6.05466 103.226 5.69529L105.223 1.08798C106.503 1.64247 107.741 2.42004 108.901 3.39989L105.66 7.23608ZM93.0518 8.79911L89.3685 5.38684C90.3542 4.32306 91.4038 3.39917 92.4879 2.64169L95.3648 6.75763C94.5734 7.31068 93.795 7.99787 93.0518 8.79911ZM109.532 12.1934C108.992 11.2028 108.402 10.2904 107.779 9.48199L111.756 6.41619C112.54 7.43334 113.276 8.56885 113.942 9.79044L109.532 12.1934ZM89.3972 14.2098L84.9103 11.9546C85.518 10.7466 86.1823 9.60107 86.8854 8.54948L91.0602 11.3413C90.4719 12.2207 89.9123 13.1862 89.3972 14.2098ZM111.998 18.3961C111.689 17.2885 111.329 16.214 110.929 15.2019L115.601 13.3584C116.063 14.5304 116.479 15.77 116.835 17.0432L111.998 18.3961ZM86.983 20.5294L82.1482 19.1729C82.5005 17.9162 82.9051 16.6853 83.3506 15.5132L88.0455 17.2957C87.6531 18.3293 87.2951 19.4168 86.983 20.5294ZM113.253 25.1015C113.134 23.9545 112.971 22.814 112.766 21.7122L117.704 20.7948C117.933 22.03 118.116 23.3061 118.248 24.5872L113.253 25.1015ZM85.6651 27.2592L80.6775 26.6717C80.8267 25.4021 81.0247 24.1339 81.2651 22.9008L86.1945 23.8613C85.9779 24.971 85.8 26.1144 85.6651 27.2592ZM118.463 32.2051L113.441 32.0688L113.448 31.9239C113.497 30.8321 113.507 29.673 113.475 28.5339L118.496 28.3954C118.531 29.655 118.519 30.9361 118.463 32.2051ZM85.3537 34.1418L80.3331 34.276C80.3001 33.0328 80.3116 31.7646 80.3675 30.5079L85.3867 30.6808L85.381 30.7955C85.3336 31.8694 85.3236 33.0171 85.3537 34.1418ZM117.557 39.8502L112.628 38.8854C112.846 37.7729 113.025 36.6302 113.16 35.4889L118.148 36.0786C117.998 37.3446 117.8 38.6136 117.557 39.8502ZM81.1194 41.8766C80.8913 40.6428 80.709 39.3675 80.5777 38.0849L85.574 37.5735C85.6909 38.7219 85.8545 39.8624 86.0582 40.9642L81.1194 41.8766ZM111.92 54.1965L107.751 51.399C108.342 50.5174 108.902 49.554 109.416 48.5333L113.9 50.7928C113.293 51.9979 112.627 53.1435 111.92 54.1965ZM87.0483 56.2616C86.267 55.2445 85.5338 54.1083 84.8687 52.8852L89.2824 50.488C89.8219 51.4807 90.4102 52.3946 91.0315 53.203L87.0483 56.2616ZM106.306 60.095L103.439 55.9711C104.232 55.4217 105.011 54.7366 105.757 53.9354L109.432 57.3563C108.443 58.4193 107.391 59.3404 106.306 60.095ZM93.564 61.6042C92.2863 61.0454 91.0516 60.2643 89.8958 59.2823L93.1457 55.4547C93.9292 56.1196 94.7478 56.6411 95.5778 57.0048L93.564 61.6042ZM99.0968 62.6543C98.7396 62.6701 98.3809 62.6701 98.0207 62.6536L98.0767 60.143L98.2194 57.6367C98.4569 57.6468 98.6678 57.6468 98.8773 57.6382C99.5417 57.6088 100.213 57.4854 100.874 57.2716L102.421 62.0489C101.331 62.4019 100.212 62.6056 99.0968 62.6543Z" fill="#259A47"/>
<path d="M100.074 94.3164C84.3675 94.3164 74.4124 112.867 71.4343 124.908C67.8192 139.523 70.2319 161.742 85.7543 170.794C94.4596 175.871 105.687 175.871 114.394 170.794C129.915 161.742 132.328 139.523 128.713 124.908C125.735 112.867 115.78 94.3164 100.074 94.3164Z" fill="white"/>
<path d="M120.631 140.248C120.631 152.565 111.643 162.549 100.556 162.549C89.4689 162.549 80.4816 152.565 80.4816 140.248C80.4816 127.931 89.4689 117.946 100.556 117.946C111.643 117.946 120.631 127.931 120.631 140.248Z" fill="#FEE56A"/>
<path d="M196.236 134.459C196.236 144.543 192.205 153.858 189.12 162.939C185.94 172.299 183.369 182.119 177.459 189.882C171.544 197.652 162.743 202.758 154.648 208.389C146.706 213.916 138.901 220.436 129.39 223.387C120.261 226.221 110.172 225.38 100.073 225.38C89.9754 225.38 79.8854 226.221 70.7568 223.387C61.2465 220.436 53.4408 213.916 45.4981 208.389C37.4041 202.758 28.6033 197.652 22.688 189.882C16.7771 182.119 14.2073 172.298 11.0269 162.939C7.94194 153.858 3.91139 144.543 3.91139 134.459C3.91139 124.375 7.94194 115.06 11.0269 105.979C14.2073 96.6193 16.7778 86.7993 22.688 79.0358C28.6033 71.2658 37.4048 66.16 45.4981 60.5291C53.4408 55.0022 61.2465 48.4825 70.7561 45.5308C79.8854 42.6967 89.9754 43.5381 100.073 43.5381C110.172 43.5381 120.261 42.6967 129.39 45.5308C138.901 48.4825 146.706 55.0022 154.649 60.5291C162.743 66.16 171.544 71.2658 177.459 79.0358C183.369 86.7993 185.94 96.6201 189.12 105.979C192.205 115.06 196.236 124.375 196.236 134.459Z" fill="#A0532A"/>
<path d="M167.06 134.459C167.06 141.548 163.48 147.986 161.403 154.383C159.25 161.013 158.287 168.311 154.27 173.829C150.214 179.402 143.542 182.555 137.967 186.611C132.448 190.627 127.41 196.02 120.779 198.173C114.381 200.25 107.164 198.916 100.073 198.916C92.9828 198.916 85.7661 200.25 79.3681 198.173C72.7375 196.02 67.6983 190.627 62.1791 186.611C56.6046 182.555 49.9332 179.402 45.8761 173.829C41.8599 168.311 40.8971 161.013 38.7441 154.383C36.6672 147.987 33.0872 141.548 33.0872 134.459C33.0872 127.37 36.6664 120.932 38.7441 114.535C40.8971 107.906 41.8599 100.608 45.8761 95.0893C49.9332 89.5158 56.6046 86.3632 62.1791 82.3075C67.6983 78.2912 72.7368 72.8977 79.3681 70.7451C85.7661 68.6677 92.9828 70.002 100.073 70.002C107.164 70.002 114.381 68.6677 120.778 70.7451C127.41 72.8977 132.448 78.2912 137.967 82.3075C143.542 86.3632 150.214 89.5158 154.27 95.0893C158.287 100.608 159.25 107.905 161.403 114.535C163.48 120.931 167.06 127.37 167.06 134.459Z" fill="#C59132"/>
<path d="M100.074 94.3164C84.3675 94.3164 74.4124 112.867 71.4343 124.908C67.8192 139.523 70.2319 161.742 85.7543 170.794C94.4596 175.871 105.687 175.871 114.394 170.794C129.915 161.742 132.328 139.523 128.713 124.908C125.735 112.867 115.78 94.3164 100.074 94.3164Z" fill="white"/>
<path d="M120.631 140.248C120.631 152.565 111.643 162.549 100.556 162.549C89.4689 162.549 80.4816 152.565 80.4816 140.248C80.4816 127.931 89.4689 117.946 100.556 117.946C111.643 117.946 120.631 127.931 120.631 140.248Z" fill="#FEE56A"/>
<path d="M89.8276 77.8049C89.8276 76.5467 88.8074 75.5267 87.5491 75.5267C86.29 75.5267 85.2698 76.5467 85.2698 77.8049C85.2698 79.0631 86.29 80.0831 87.5491 80.0831C88.8074 80.0831 89.8276 79.0631 89.8276 77.8049Z" fill="black"/>
<path d="M83.6846 84.0577C83.6846 84.5835 83.4399 85.1014 82.9801 85.4306C82.2225 85.9744 81.1678 85.8008 80.624 85.0433L77.9874 81.3692C77.4436 80.6117 77.6173 79.5566 78.3749 79.0128C79.1325 78.4698 80.1878 78.6434 80.7309 79.4009L83.3675 83.075C83.582 83.3727 83.6846 83.717 83.6846 84.0577Z" fill="#8E7744"/>
<path d="M79.3548 94.7993C79.3548 93.5412 78.3346 92.5211 77.0762 92.5211C75.8172 92.5211 74.797 93.5412 74.797 94.7993C74.797 96.0575 75.8172 97.0775 77.0762 97.0775C78.3346 97.0775 79.3548 96.0575 79.3548 94.7993Z" fill="black"/>
<path d="M113.276 86.483C113.669 86.8316 113.894 87.3581 113.836 87.9212C113.74 88.8487 112.91 89.5223 111.982 89.4269L107.484 88.9613C106.556 88.8652 105.882 88.036 105.978 87.1078C106.074 86.1803 106.903 85.5067 107.831 85.6029L112.33 86.0684C112.695 86.1057 113.021 86.257 113.276 86.483Z" fill="#8E7744"/>
<path d="M126.359 79.2229C126.359 77.9647 125.339 76.9447 124.081 76.9447C122.822 76.9447 121.801 77.9647 121.801 79.2229C121.801 80.481 122.822 81.5011 124.081 81.5011C125.339 81.5011 126.359 80.481 126.359 79.2229Z" fill="black"/>
<path d="M105.022 79.2229C105.022 77.9647 104.002 76.9447 102.743 76.9447C101.484 76.9447 100.464 77.9647 100.464 79.2229C100.464 80.481 101.484 81.5011 102.743 81.5011C104.002 81.5011 105.022 80.481 105.022 79.2229Z" fill="black"/>
<path d="M125.341 92.1938C125.341 90.9357 124.321 89.9156 123.063 89.9156C121.804 89.9156 120.783 90.9357 120.783 92.1938C120.783 93.452 121.804 94.472 123.063 94.472C124.321 94.472 125.341 93.452 125.341 92.1938Z" fill="black"/>
<path d="M139.815 97.0176C139.815 95.7594 138.795 94.7394 137.536 94.7394C136.277 94.7394 135.257 95.7594 135.257 97.0176C135.257 98.2757 136.277 99.2957 137.536 99.2957C138.795 99.2957 139.815 98.2757 139.815 97.0176Z" fill="black"/>
<path d="M134.99 111.489C134.99 110.231 133.97 109.21 132.712 109.21C131.453 109.21 130.432 110.231 130.432 111.489C130.432 112.747 131.453 113.767 132.712 113.767C133.97 113.767 134.99 112.747 134.99 111.489Z" fill="black"/>
<path d="M149.464 106.665C149.464 105.407 148.444 104.387 147.185 104.387C145.926 104.387 144.906 105.407 144.906 106.665C144.906 107.923 145.926 108.943 147.185 108.943C148.444 108.943 149.464 107.923 149.464 106.665Z" fill="black"/>
<path d="M149.464 125.96C149.464 124.702 148.444 123.682 147.185 123.682C145.926 123.682 144.906 124.702 144.906 125.96C144.906 127.218 145.926 128.238 147.185 128.238C148.444 128.238 149.464 127.218 149.464 125.96Z" fill="black"/>
<path d="M139.815 135.607C139.815 134.349 138.795 133.329 137.536 133.329C136.277 133.329 135.257 134.349 135.257 135.607C135.257 136.865 136.277 137.885 137.536 137.885C138.795 137.885 139.815 136.865 139.815 135.607Z" fill="black"/>
<path d="M159.113 140.431C159.113 139.173 158.093 138.153 156.834 138.153C155.575 138.153 154.555 139.173 154.555 140.431C154.555 141.689 155.575 142.709 156.834 142.709C158.093 142.709 159.113 141.689 159.113 140.431Z" fill="black"/>
<path d="M144.639 154.902C144.639 153.644 143.619 152.624 142.361 152.624C141.102 152.624 140.081 153.644 140.081 154.902C140.081 156.16 141.102 157.18 142.361 157.18C143.619 157.18 144.639 156.16 144.639 154.902Z" fill="black"/>
<path d="M65.035 92.1938C65.035 90.9357 64.0148 89.9156 62.7564 89.9156C61.4973 89.9156 60.4771 90.9357 60.4771 92.1938C60.4771 93.452 61.4973 94.472 62.7564 94.472C64.0148 94.472 65.035 93.452 65.035 92.1938Z" fill="black"/>
<path d="M67.4473 111.489C67.4473 110.231 66.4271 109.21 65.1687 109.21C63.9096 109.21 62.8894 110.231 62.8894 111.489C62.8894 112.747 63.9096 113.767 65.1687 113.767C66.4271 113.767 67.4473 112.747 67.4473 111.489Z" fill="black"/>
<path d="M52.9738 106.665C52.9738 105.407 51.9536 104.387 50.6952 104.387C49.4361 104.387 48.4159 105.407 48.4159 106.665C48.4159 107.923 49.4361 108.943 50.6952 108.943C51.9536 108.943 52.9738 107.923 52.9738 106.665Z" fill="black"/>
<path d="M62.6228 130.783C62.6228 129.525 61.6026 128.505 60.3442 128.505C59.0851 128.505 58.0649 129.525 58.0649 130.783C58.0649 132.042 59.0851 133.062 60.3442 133.062C61.6026 133.062 62.6228 132.042 62.6228 130.783Z" fill="black"/>
<path d="M43.3247 135.607C43.3247 134.349 42.3045 133.329 41.0462 133.329C39.7871 133.329 38.7669 134.349 38.7669 135.607C38.7669 136.865 39.7871 137.885 41.0462 137.885C42.3045 137.885 43.3247 136.865 43.3247 135.607Z" fill="black"/>
<path d="M62.6228 154.902C62.6228 153.644 61.6026 152.624 60.3442 152.624C59.0851 152.624 58.0649 153.644 58.0649 154.902C58.0649 156.16 59.0851 157.18 60.3442 157.18C61.6026 157.18 62.6228 156.16 62.6228 154.902Z" fill="black"/>
<path d="M131.135 172.063C131.135 170.805 130.115 169.785 128.856 169.785C127.597 169.785 126.577 170.805 126.577 172.063C126.577 173.322 127.597 174.342 128.856 174.342C130.115 174.342 131.135 173.322 131.135 172.063Z" fill="black"/>
<path d="M121.486 191.358C121.486 190.1 120.466 189.08 119.207 189.08C117.948 189.08 116.928 190.1 116.928 191.358C116.928 192.616 117.948 193.636 119.207 193.636C120.466 193.636 121.486 192.616 121.486 191.358Z" fill="black"/>
<path d="M111.837 181.711C111.837 180.453 110.817 179.433 109.558 179.433C108.299 179.433 107.279 180.453 107.279 181.711C107.279 182.969 108.299 183.989 109.558 183.989C110.817 183.989 111.837 182.969 111.837 181.711Z" fill="black"/>
<path d="M97.3632 191.358C97.3632 190.1 96.343 189.08 95.0847 189.08C93.8256 189.08 92.8054 190.1 92.8054 191.358C92.8054 192.616 93.8256 193.636 95.0847 193.636C96.343 193.636 97.3632 192.616 97.3632 191.358Z" fill="black"/>
<path d="M82.8898 176.887C82.8898 175.629 81.8696 174.609 80.6112 174.609C79.3521 174.609 78.3319 175.629 78.3319 176.887C78.3319 178.145 79.3521 179.165 80.6112 179.165C81.8696 179.165 82.8898 178.145 82.8898 176.887Z" fill="black"/>
<path d="M63.5917 172.063C63.5917 170.805 62.5715 169.785 61.3132 169.785C60.0541 169.785 59.0339 170.805 59.0339 172.063C59.0339 173.322 60.0541 174.342 61.3132 174.342C62.5715 174.342 63.5917 173.322 63.5917 172.063Z" fill="black"/>
<path d="M149.468 170.134C149.468 168.876 148.448 167.856 147.189 167.856C145.93 167.856 144.91 168.876 144.91 170.134C144.91 171.392 145.93 172.412 147.189 172.412C148.448 172.412 149.468 171.392 149.468 170.134Z" fill="black"/>
<path d="M49.1183 155.663C49.1183 154.405 48.0981 153.385 46.8397 153.385C45.5806 153.385 44.5604 154.405 44.5604 155.663C44.5604 156.921 45.5806 157.941 46.8397 157.941C48.0981 157.941 49.1183 156.921 49.1183 155.663Z" fill="black"/>
<path d="M155.587 114.945C155.98 115.293 156.205 115.82 156.147 116.383C156.051 117.311 155.222 117.984 154.293 117.889L149.795 117.423C148.867 117.327 148.193 116.498 148.289 115.57C148.385 114.642 149.215 113.969 150.142 114.065L154.641 114.53C155.007 114.568 155.332 114.719 155.587 114.945Z" fill="#8E7744"/>
<path d="M126.431 180.679C126.824 181.028 127.05 181.554 126.991 182.117C126.895 183.045 126.066 183.718 125.138 183.623L120.639 183.157C119.712 183.061 119.037 182.232 119.133 181.304C119.23 180.376 120.059 179.703 120.987 179.799L125.486 180.265C125.851 180.302 126.176 180.453 126.431 180.679Z" fill="#8E7744"/>
<path d="M63.7127 143.092C64.1058 143.441 64.3311 143.967 64.273 144.53C64.1769 145.458 63.3475 146.131 62.4191 146.036L57.9209 145.57C56.9932 145.474 56.3188 144.645 56.415 143.717C56.5111 142.789 57.3404 142.116 58.2681 142.212L62.7671 142.677C63.1323 142.715 63.458 142.866 63.7127 143.092Z" fill="#8E7744"/>
<path d="M81.7007 186.709C82.0939 187.057 82.3192 187.584 82.2611 188.147C82.1649 189.074 81.3356 189.748 80.4072 189.652L75.9089 189.187C74.9812 189.091 74.3069 188.262 74.403 187.333C74.4991 186.406 75.3285 185.732 76.2561 185.828L80.7551 186.294C81.1203 186.331 81.446 186.483 81.7007 186.709Z" fill="#8E7744"/>
<path d="M128.768 97.2694C129.254 97.0686 129.826 97.0958 130.306 97.3949C131.099 97.8863 131.342 98.9271 130.85 99.7198L128.465 103.561C127.973 104.354 126.932 104.597 126.14 104.105C125.347 103.613 125.104 102.572 125.596 101.78L127.981 97.938C128.175 97.6266 128.453 97.4 128.768 97.2694Z" fill="#8E7744"/>
<path d="M107.691 188.949C108.177 188.748 108.748 188.775 109.229 189.074C110.022 189.566 110.265 190.607 109.773 191.399L107.387 195.241C106.895 196.033 105.854 196.276 105.062 195.784C104.269 195.292 104.026 194.251 104.518 193.459L106.904 189.617C107.098 189.306 107.376 189.079 107.691 188.949Z" fill="#8E7744"/>
<path d="M46.5963 118.592C47.082 118.391 47.6538 118.418 48.1345 118.717C48.9272 119.208 49.1705 120.249 48.6783 121.042L46.2928 124.883C45.8007 125.676 44.7597 125.919 43.9676 125.427C43.1749 124.935 42.9317 123.894 43.4238 123.102L45.8093 119.26C46.003 118.949 46.2813 118.722 46.5963 118.592Z" fill="#8E7744"/>
<path d="M89.9058 87.5146C89.3799 87.5146 88.8619 87.27 88.5326 86.8102C87.9888 86.0527 88.1625 84.9983 88.9201 84.4545L92.5947 81.8184C93.3523 81.2747 94.4077 81.4483 94.9515 82.2058C95.4946 82.9632 95.321 84.0184 94.5634 84.5614L90.8887 87.1976C90.591 87.412 90.2466 87.5146 89.9058 87.5146Z" fill="#F8F3BC"/>
<path d="M70.6079 87.5146C70.082 87.5146 69.564 87.27 69.2347 86.8102C68.6909 86.0527 68.8645 84.9983 69.6221 84.4545L73.2968 81.8184C74.0544 81.2747 75.1098 81.4483 75.6536 82.2058C76.1967 82.9632 76.0231 84.0184 75.2655 84.5614L71.5907 87.1976C71.293 87.412 70.9486 87.5146 70.6079 87.5146Z" fill="#F8F3BC"/>
<path d="M65.3009 102.95C64.7751 102.95 64.2571 102.706 63.9278 102.246C63.384 101.489 63.5576 100.434 64.3152 99.8904L67.9899 97.2543C68.7475 96.7105 69.8028 96.8841 70.3467 97.6416C70.8898 98.3991 70.7161 99.4543 69.9585 99.9973L66.2838 102.633C65.9861 102.848 65.6417 102.95 65.3009 102.95Z" fill="#F8F3BC"/>
<path d="M135.739 123.692C135.213 123.692 134.695 123.448 134.365 122.988C133.822 122.23 133.995 121.176 134.753 120.632L138.427 117.996C139.185 117.452 140.24 117.626 140.784 118.383C141.327 119.141 141.154 120.196 140.396 120.739L136.721 123.375C136.424 123.59 136.079 123.692 135.739 123.692Z" fill="#F8F3BC"/>
<path d="M145.388 142.987C144.862 142.987 144.344 142.743 144.014 142.283C143.471 141.525 143.644 140.471 144.402 139.927L148.077 137.291C148.834 136.747 149.889 136.921 150.433 137.678C150.976 138.436 150.803 139.491 150.045 140.034L146.37 142.67C146.073 142.885 145.728 142.987 145.388 142.987Z" fill="#F8F3BC"/>
<path d="M133.977 164.166C133.597 164.528 133.053 164.708 132.497 164.602C131.58 164.429 130.979 163.546 131.153 162.63L131.995 158.187C132.168 157.27 133.052 156.668 133.968 156.843C134.885 157.016 135.486 157.899 135.312 158.815L134.47 163.258C134.402 163.619 134.224 163.93 133.977 164.166Z" fill="#F8F3BC"/>
<path d="M52.5723 169.068C52.1167 169.329 51.5456 169.376 51.0305 169.142C50.181 168.757 49.8058 167.756 50.1911 166.907L52.0607 162.789C52.446 161.94 53.4475 161.565 54.2962 161.95C55.1457 162.336 55.5216 163.336 55.1356 164.186L53.266 168.303C53.1146 168.637 52.8678 168.898 52.5723 169.068Z" fill="#F8F3BC"/>
<path d="M59.4459 116.611C59.4961 117.134 59.3024 117.673 58.8762 118.045C58.1746 118.659 57.1078 118.587 56.4936 117.885L53.517 114.48C52.9029 113.779 52.9746 112.712 53.677 112.098C54.3794 111.485 55.4455 111.557 56.0596 112.258L59.0362 115.663C59.278 115.939 59.4129 116.271 59.4459 116.611Z" fill="#F8F3BC"/>
<path d="M54.511 135.998C54.5612 136.521 54.3675 137.06 53.9413 137.433C53.239 138.046 52.1729 137.974 51.5587 137.273L48.5821 133.868C47.968 133.166 48.0397 132.099 48.7421 131.485C49.4444 130.872 50.5106 130.944 51.1247 131.645L54.1013 135.051C54.3431 135.327 54.478 135.659 54.511 135.998Z" fill="#F8F3BC"/>
<path d="M116.808 80.5321C116.808 81.0579 116.564 81.5758 116.104 81.905C115.346 82.4488 114.291 82.2752 113.748 81.5177L111.111 77.8436C110.567 77.0861 110.741 76.031 111.498 75.4872C112.256 74.9442 113.311 75.1171 113.855 75.8753L116.491 79.5494C116.706 79.8471 116.808 80.1914 116.808 80.5321Z" fill="#F8F3BC"/>
<path d="M71.957 172.437C72.475 172.348 73.0274 172.5 73.4306 172.897C74.0964 173.549 74.1057 174.618 73.4521 175.284L70.2832 178.51C69.6296 179.176 68.5606 179.185 67.8956 178.532C67.2298 177.878 67.2205 176.809 67.8741 176.145L71.043 172.918C71.2998 172.656 71.6212 172.496 71.957 172.437Z" fill="#F8F3BC"/>
<path d="M98.2536 182.498C98.3038 183.021 98.1101 183.561 97.6839 183.933C96.9823 184.546 95.9155 184.475 95.3013 183.773L92.3247 180.368C91.7106 179.666 91.7823 178.6 92.4847 177.986C93.1871 177.372 94.2532 177.444 94.8673 178.146L97.8439 181.551C98.0857 181.827 98.2206 182.159 98.2536 182.498Z" fill="#F8F3BC"/>
<path d="M134.808 178.542C134.313 178.368 133.905 177.966 133.745 177.423C133.483 176.528 133.996 175.59 134.891 175.327L139.231 174.055C140.126 173.793 141.064 174.305 141.326 175.2C141.589 176.095 141.076 177.033 140.181 177.296L135.841 178.567C135.489 178.671 135.13 178.654 134.808 178.542Z" fill="#F8F3BC"/>
<path d="M129.984 89.7447C129.488 89.5711 129.08 89.1687 128.921 88.6257C128.658 87.7312 129.171 86.793 130.066 86.5304L134.406 85.2586C135.302 84.9961 136.239 85.5083 136.502 86.4035C136.764 87.298 136.251 88.2362 135.356 88.4987L131.016 89.7705C130.664 89.8738 130.305 89.8573 129.984 89.7447Z" fill="#F8F3BC"/>
<path d="M71.3275 164.901C71.5004 165.397 71.4387 165.966 71.113 166.429C70.5756 167.191 69.5224 167.373 68.7598 166.836L65.0629 164.231C64.301 163.694 64.118 162.641 64.6561 161.878C65.1927 161.116 66.2466 160.934 67.0086 161.471L70.7055 164.076C71.0054 164.288 71.2156 164.578 71.3275 164.901Z" fill="#8E7744"/>
<path d="M155.434 157.738C155.235 158.224 154.813 158.611 154.263 158.743C153.356 158.96 152.445 158.401 152.228 157.494L151.175 153.095C150.959 152.189 151.518 151.278 152.425 151.061C153.332 150.844 154.243 151.403 154.46 152.311L155.512 156.708C155.598 157.065 155.563 157.422 155.434 157.738Z" fill="#8E7744"/>
<path d="M31.0561 102.213C31.2282 102.309 31.427 102.422 31.653 102.552C31.8782 102.681 32.1473 102.837 32.4572 103.018C32.7678 103.199 33.1545 103.423 33.6166 103.688L32.1466 106.446L19.8454 100.064L21.3686 97.3917C21.4719 97.4462 21.6799 97.5474 21.9934 97.6966C22.307 97.8465 22.6815 98.0309 23.1155 98.2504C23.5496 98.4684 24.0245 98.7087 24.541 98.9698C25.0583 99.2316 25.5706 99.5013 26.0792 99.7768C25.77 99.317 25.4486 98.8307 25.1143 98.3185C24.7807 97.8063 24.4629 97.3186 24.1615 96.8559C23.8602 96.3932 23.5912 95.9772 23.353 95.6049C23.1155 95.234 22.9426 94.9629 22.8371 94.79C22.939 94.5684 23.0273 94.3733 23.1019 94.2033C23.1772 94.034 23.2482 93.8719 23.3157 93.7176C23.3824 93.5627 23.4534 93.4013 23.5287 93.2313C23.6034 93.0613 23.6966 92.8698 23.8085 92.6539L24.0733 92.1453C24.1687 91.9595 24.2885 91.7543 24.432 91.5284C24.8416 92.1718 25.2248 92.7586 25.582 93.2894C25.9386 93.8202 26.2787 94.3223 26.6001 94.7958C26.9222 95.2685 27.2336 95.7247 27.5349 96.1608C27.8369 96.5984 28.1419 97.0467 28.4511 97.5065C29.0881 97.4857 29.7159 97.4749 30.335 97.4764C30.9535 97.4785 31.592 97.4864 32.2491 97.5015C32.907 97.5165 33.5936 97.5431 34.3096 97.5825C35.0263 97.622 35.804 97.6765 36.642 97.7454L35.0407 100.906C34.555 100.863 34.1747 100.828 33.9007 100.803C33.6266 100.778 33.3913 100.762 33.1947 100.75C32.9982 100.739 32.8138 100.735 32.643 100.737C32.4723 100.74 32.252 100.737 31.9837 100.729L29.7618 100.71L30.5209 101.926C30.706 102.021 30.8839 102.117 31.0561 102.213Z" fill="white"/>
<path d="M37.4737 82.8005C37.8769 82.3156 38.2945 81.8601 38.7235 81.4347C38.9538 81.6112 39.1568 81.7647 39.3333 81.8952C39.5098 82.0279 39.6784 82.1642 39.8391 82.3055C39.9998 82.4475 40.1605 82.6032 40.3198 82.7739C40.4798 82.9432 40.657 83.1476 40.8514 83.3844L38.6094 86.1051C38.9093 86.3246 39.197 86.5448 39.4725 86.7651C39.7472 86.9874 40.0342 87.2076 40.3341 87.4264C40.5608 87.118 40.8033 86.7995 41.0609 86.4717C41.3184 86.1439 41.5746 85.8268 41.83 85.5198C42.0854 85.2128 42.3343 84.923 42.5768 84.6497C42.8186 84.3764 43.0374 84.1411 43.2325 83.9424C43.4514 84.1691 43.6479 84.3671 43.8244 84.5356C44.0002 84.7042 44.1688 84.8635 44.3302 85.0134C44.4916 85.1626 44.6588 85.3204 44.8303 85.4846C45.001 85.6504 45.1919 85.8419 45.4006 86.0621C45.0218 86.5893 44.6523 87.0886 44.2929 87.5555C43.9328 88.0247 43.5669 88.4931 43.1945 88.9579C42.8222 89.4234 42.4405 89.9004 42.0488 90.3882C41.6585 90.8774 41.2424 91.4046 40.8012 91.9699C40.1648 91.4864 39.5421 90.9994 38.9344 90.5087C38.3253 90.0174 37.7148 89.5167 37.0999 89.0052C35.9614 88.0584 34.8407 87.1115 33.738 86.164C32.6361 85.2178 31.5183 84.2659 30.3862 83.309C30.8116 82.7445 31.2084 82.223 31.575 81.7453C31.9423 81.2669 32.2996 80.797 32.6468 80.3336C32.9955 79.8702 33.3614 79.3954 33.7438 78.9076C34.1262 78.4198 34.5494 77.8804 35.0129 77.2865C35.2267 77.4644 35.4219 77.6193 35.5983 77.7513C35.7748 77.8826 35.952 78.0188 36.1285 78.158C36.3057 78.2986 36.4987 78.4471 36.7068 78.6049C36.9141 78.762 37.1674 78.9506 37.4673 79.1701L34.7374 82.614L36.3753 84.0665C36.7039 83.7072 37.0705 83.2854 37.4737 82.8005Z" fill="white"/>
<path d="M49.9637 72.5955C50.0698 72.4678 50.1387 72.3495 50.1696 72.2383C50.2018 72.1092 50.1882 71.988 50.1287 71.8739C49.8087 71.1982 49.4672 70.6545 49.102 70.2413C48.7375 69.8288 48.4161 69.5462 48.1378 69.3963C47.9979 69.3282 47.8565 69.3174 47.7152 69.3611C47.5732 69.4056 47.4462 69.468 47.3328 69.5491C47.2195 69.6287 47.1241 69.7133 47.0473 69.8023C46.9698 69.8927 46.9268 69.9415 46.9174 69.9479C46.9081 69.9544 46.9963 70.0734 47.1822 70.303C47.368 70.5318 47.5933 70.8087 47.858 71.1308C48.1227 71.4521 48.3982 71.7835 48.6859 72.125C48.9729 72.4671 49.2096 72.7483 49.3969 72.9692C49.6681 72.8473 49.8568 72.7225 49.9637 72.5955ZM55.2045 76.2438C54.7167 76.02 54.2747 75.8098 53.8787 75.6125C53.4827 75.4146 53.1096 75.2159 52.7588 75.0208C52.4079 74.8228 52.0413 74.6104 51.6575 74.3795L50.9164 74.9548C51.4186 75.6204 51.8713 76.2215 52.2745 76.7595C52.4517 76.9876 52.6239 77.2129 52.7889 77.4367C52.9546 77.6598 53.1089 77.862 53.2509 78.0457L53.7517 78.6898L53.2854 79.0521C53.1663 79.1446 53.0601 79.23 52.9675 79.3089C52.8757 79.3885 52.7882 79.4595 52.7064 79.5241L52.4596 79.7156C52.3312 79.8146 52.1812 79.9286 52.0083 80.0542C51.8354 80.1811 51.5994 80.354 51.2995 80.5713C50.2463 79.235 49.2297 77.9546 48.249 76.7301C47.2682 75.5057 46.2882 74.2618 45.3082 73.0001C44.4846 71.9392 43.6495 70.8367 42.8037 69.6897C43.0182 69.4953 43.2442 69.3045 43.4816 69.1201L44.415 68.3956C44.6798 68.1891 44.9911 67.9588 45.3491 67.7034C45.7078 67.4466 46.0773 67.2142 46.4583 67.0062C46.8392 66.7996 47.2144 66.6354 47.5846 66.517C47.9534 66.3994 48.2834 66.3657 48.5747 66.4194C49.3208 66.5873 49.9429 66.8692 50.4422 67.2659C50.9401 67.6633 51.4028 68.136 51.8297 68.6847C52.1203 69.0584 52.4029 69.4472 52.6791 69.8496C52.9546 70.2513 53.1691 70.6932 53.3234 71.1738L53.2574 72.1924L58.0778 74.2095L56.9328 77.0106C56.2684 76.7215 55.6924 76.4654 55.2045 76.2438Z" fill="white"/>
<path d="M68.5616 63.5184C68.9139 63.8627 69.1872 64.2379 69.3831 64.6453C69.599 65.0943 69.7167 65.5936 69.7368 66.1423C69.7569 66.6918 69.655 67.3216 69.4319 68.0325C69.2611 68.3725 69.0645 68.6651 68.8436 68.9133C68.6219 69.1608 68.3543 69.3918 68.0401 69.6077C67.7258 69.8229 67.352 70.0402 66.9187 70.2612C66.4854 70.4828 65.9717 70.7367 65.3769 71.0222L64.5777 71.406L63.3681 68.8086C63.5295 68.7175 63.6881 68.6321 63.8416 68.5525C63.9959 68.4715 64.1802 68.3739 64.394 68.2577C64.5877 68.1523 64.7872 68.0461 64.9931 67.9414C65.199 67.8352 65.3891 67.7161 65.562 67.5798C65.7349 67.4464 65.8777 67.2943 65.9889 67.1251C66.1001 66.9558 66.1575 66.7556 66.1611 66.5218C66.1238 66.3088 66.0685 66.1301 65.9989 65.9831C65.8834 65.7435 65.7313 65.5405 65.5419 65.3748C65.3525 65.2077 65.143 65.0657 64.912 64.9444C64.6803 64.8246 64.4378 64.7206 64.1824 64.631C63.9277 64.5413 63.6816 64.4509 63.4449 64.3591C62.9348 64.1547 62.4993 63.9431 62.1377 63.725C61.7761 63.5069 61.4791 63.1978 61.2474 62.7953C61.1814 62.6856 61.1182 62.5737 61.0587 62.4618C60.9977 62.3492 60.9374 62.2308 60.8772 62.106C60.7567 61.8557 60.6533 61.5874 60.5672 61.3005C60.4812 61.015 60.4309 60.718 60.418 60.4088C60.4051 60.1004 60.441 59.7747 60.5264 59.4326C60.6124 59.0897 60.7746 58.7389 61.0128 58.3796C61.1398 58.1902 61.2969 57.9958 61.4848 57.7957C61.6714 57.597 61.9017 57.3897 62.1779 57.1745C62.4527 56.9578 62.7812 56.7269 63.1629 56.4787C63.5453 56.2312 63.9952 55.9637 64.5117 55.676L66.2371 58.1034C65.9609 58.2748 65.7356 58.4283 65.562 58.5625C65.3891 58.6973 65.2399 58.8078 65.1143 58.8939C64.9673 58.99 64.8245 59.1191 64.6853 59.2841C64.5454 59.4469 64.4643 59.5983 64.4414 59.7374C64.4184 59.8773 64.4184 60.0373 64.4414 60.2188C64.4643 60.4009 64.5189 60.5803 64.6035 60.7582C64.6638 60.883 64.7427 60.9999 64.8396 61.1068C64.9357 61.2151 65.0505 61.3005 65.1854 61.365C65.5599 61.5314 65.925 61.7151 66.2795 61.9181C66.6332 62.1196 66.9775 62.3277 67.3111 62.5393C67.7925 62.847 68.2101 63.1734 68.5616 63.5184Z" fill="white"/>
<path d="M80.4805 64.0158C80.4051 63.688 80.3269 63.3494 80.2459 63.0001C80.1655 62.6501 80.0794 62.2835 79.9897 61.9005C79.9008 61.5174 79.8018 61.1071 79.6927 60.6688C79.5586 60.0821 79.4345 59.5484 79.3218 59.0692C79.2092 58.5915 79.0994 58.1288 78.9947 57.6834C78.8899 57.2386 78.7773 56.7867 78.6575 56.3277C78.5369 55.8679 78.3956 55.3607 78.2335 54.8041C78.0455 54.8636 77.8568 54.9188 77.6667 54.9726C77.4766 55.025 77.27 55.0795 77.0454 55.1355L75.4441 55.5336C75.4111 55.3514 75.3759 55.1864 75.3393 55.0408L75.2267 54.586C75.1564 54.3055 75.0897 54.0502 75.0265 53.8214C74.9641 53.5925 74.9053 53.3659 74.8486 53.1413L74.7647 52.8042C74.7367 52.6916 74.7137 52.5725 74.6936 52.4455C75.3623 52.2555 75.99 52.0819 76.5776 51.9241C77.1645 51.7655 77.7384 51.6171 78.3009 51.4779C78.7048 51.3767 79.1044 51.2792 79.4997 51.1881C79.8943 51.0963 80.299 50.998 80.7151 50.894C81.1305 50.7907 81.5609 50.6874 82.0057 50.5827C82.4512 50.4772 82.9212 50.3639 83.4155 50.2405C83.4693 50.4062 83.5152 50.559 83.5561 50.6989C83.597 50.8373 83.635 50.9794 83.6716 51.1257C83.7441 51.4176 83.8144 51.7254 83.8833 52.0482C83.9514 52.3717 84.0526 52.8021 84.1867 53.3408C83.9284 53.406 83.696 53.4663 83.4894 53.5237C83.2828 53.5803 83.079 53.6349 82.8767 53.6858L81.5624 54.0122C81.7805 54.8407 81.9706 55.6039 82.1327 56.304C82.2941 57.0034 82.4634 57.7071 82.6399 58.4136C82.8157 59.1223 83.0259 59.9558 83.2706 60.9142C83.5152 61.8739 83.7785 62.9678 84.0605 64.198L80.6986 64.9986C80.629 64.67 80.5558 64.3422 80.4805 64.0158Z" fill="white"/>
<path d="M98.8798 54.0631C99.5104 54.0444 100.127 54.0537 100.731 54.0932C100.752 54.3816 100.771 54.6362 100.79 54.855C100.808 55.0745 100.818 55.2911 100.819 55.5056C100.82 55.7201 100.808 55.9432 100.787 56.1756C100.765 56.4087 100.73 56.6755 100.682 56.9775L97.1586 57.1052C97.1931 57.4746 97.2196 57.8362 97.2361 58.1891C97.2519 58.5413 97.2784 58.9028 97.3129 59.2722C97.6946 59.2371 98.0928 59.2069 98.5089 59.1833C98.925 59.1582 99.3332 59.1395 99.7321 59.128C100.132 59.1151 100.513 59.1079 100.879 59.1087C101.244 59.1094 101.565 59.1158 101.844 59.1309C101.819 59.4444 101.801 59.7234 101.792 59.9666C101.782 60.2097 101.775 60.4429 101.77 60.6617C101.765 60.8819 101.758 61.1114 101.748 61.3495C101.738 61.5863 101.72 61.8567 101.695 62.158C101.048 62.2247 100.43 62.2792 99.8411 62.3215C99.2521 62.3624 98.6581 62.3983 98.0626 62.4277C97.4671 62.4578 96.8573 62.4886 96.2324 62.5195C95.6083 62.551 94.9375 62.5898 94.2207 62.6357C94.1612 61.8373 94.1139 61.0483 94.078 60.2678C94.0414 59.4874 94.0113 58.6976 93.9862 57.9C93.9402 56.418 93.9058 54.9504 93.8843 53.4986C93.8613 52.0453 93.8333 50.5784 93.7989 49.0964C94.5034 49.0404 95.157 48.9917 95.7575 48.9486C96.3587 48.9077 96.9477 48.8625 97.5253 48.8159C98.1035 48.7686 98.7011 48.727 99.3196 48.6904C99.9387 48.6538 100.624 48.6115 101.376 48.5649C101.384 48.8439 101.398 49.0914 101.416 49.3116C101.435 49.5311 101.45 49.7534 101.463 49.9794C101.475 50.2032 101.492 50.4464 101.511 50.706C101.531 50.9664 101.559 51.2806 101.593 51.6507L97.2046 51.8925L97.2031 54.081C97.6903 54.0889 98.2484 54.0832 98.8798 54.0631Z" fill="white"/>
<path d="M111.473 52.2039C111.539 51.8159 111.608 51.4113 111.679 50.9888C111.751 50.5656 111.847 50.0362 111.97 49.3992C112.109 49.4086 112.236 49.4193 112.352 49.4322C112.467 49.443 112.582 49.4595 112.696 49.476C112.959 49.5169 113.213 49.5656 113.456 49.6209C113.7 49.6768 114.004 49.7321 114.37 49.7895L114.714 49.8425C114.839 49.8619 114.978 49.8777 115.128 49.8892C114.881 51.7843 114.625 53.6192 114.36 55.3938C114.096 57.1692 113.822 58.9725 113.538 60.8017L113.106 63.5827L109.778 63.1709C109.951 61.9795 110.119 60.8569 110.283 59.8053L111.27 53.4549C111.339 53.0088 111.406 52.592 111.473 52.2039Z" fill="white"/>
<path d="M128.696 59.1684C129.291 59.3778 129.863 59.6095 130.412 59.8634C130.327 60.1403 130.254 60.3849 130.191 60.5958C130.129 60.8074 130.06 61.0133 129.984 61.2141C129.907 61.4143 129.817 61.618 129.713 61.8267C129.609 62.0362 129.479 62.2729 129.325 62.5376L125.992 61.3848C125.892 61.7421 125.785 62.0878 125.673 62.4228C125.562 62.7585 125.455 63.1042 125.354 63.4608C125.722 63.5669 126.106 63.6831 126.502 63.8101C126.9 63.9363 127.286 64.0669 127.664 64.1996C128.04 64.3323 128.399 64.4643 128.74 64.5956C129.08 64.7275 129.377 64.8509 129.632 64.965C129.495 65.2483 129.378 65.5015 129.281 65.7253C129.185 65.9491 129.094 66.1629 129.01 66.3666C128.926 66.5696 128.837 66.7812 128.741 66.9993C128.647 67.2173 128.532 67.4626 128.4 67.7345C127.773 67.5631 127.177 67.3909 126.612 67.2173C126.047 67.0437 125.482 66.8623 124.915 66.6758C124.348 66.4885 123.769 66.297 123.175 66.1012C122.581 65.9054 121.941 65.6988 121.256 65.4829C121.489 64.7168 121.728 63.9636 121.977 63.2226C122.225 62.4816 122.482 61.7335 122.747 60.9796C123.239 59.5822 123.736 58.2014 124.24 56.8392C124.744 55.4756 125.247 54.0977 125.75 52.7018C126.427 52.9048 127.054 53.0934 127.63 53.2713C128.205 53.4485 128.771 53.6206 129.327 53.7856C129.883 53.9499 130.456 54.1264 131.046 54.3157C131.637 54.5051 132.29 54.7131 133.009 54.9405C132.916 55.203 132.838 55.4405 132.777 55.6514C132.715 55.863 132.649 56.0753 132.58 56.2898C132.51 56.505 132.438 56.7374 132.362 56.9877C132.287 57.2373 132.199 57.5408 132.097 57.898L127.918 56.5387L127.126 58.5802C127.577 58.7638 128.101 58.9596 128.696 59.1684Z" fill="white"/>
<path d="M142.577 67.2962C142.733 67.3522 142.869 67.3737 142.984 67.3643C143.115 67.35 143.224 67.2941 143.311 67.1987C143.831 66.6628 144.222 66.1521 144.481 65.6665C144.74 65.1801 144.892 64.7806 144.936 64.4678C144.95 64.3129 144.911 64.1766 144.82 64.059C144.73 63.9421 144.626 63.8452 144.512 63.767C144.396 63.6888 144.283 63.6293 144.173 63.5877C144.062 63.5461 144.001 63.5238 143.992 63.5167C143.982 63.5117 143.902 63.635 143.752 63.8897C143.602 64.1443 143.422 64.4506 143.213 64.8129C143.004 65.173 142.79 65.5474 142.57 65.9355C142.351 66.3242 142.171 66.6442 142.028 66.896C142.238 67.1076 142.42 67.241 142.577 67.2962ZM140.993 73.4809C141.031 72.9458 141.073 72.4587 141.12 72.0183C141.168 71.5786 141.221 71.1604 141.284 70.763C141.345 70.3656 141.417 69.946 141.497 69.5077L140.7 69.0149C140.252 69.7171 139.846 70.352 139.484 70.9172C139.332 71.164 139.181 71.4035 139.03 71.636C138.879 71.8698 138.743 72.0857 138.621 72.2815L138.192 72.9759L137.69 72.6653C137.562 72.5871 137.445 72.5183 137.338 72.4587C137.232 72.3992 137.134 72.3432 137.045 72.288L136.779 72.1237C136.642 72.0391 136.483 71.938 136.303 71.821C136.125 71.7027 135.88 71.542 135.571 71.3383C136.455 69.8843 137.3 68.4834 138.104 67.137C138.908 65.7898 139.731 64.4377 140.569 63.0777C141.275 61.935 142.016 60.7679 142.794 59.5743C143.052 59.707 143.31 59.8519 143.566 60.0105L144.57 60.6309C144.857 60.8074 145.182 61.0176 145.548 61.2643C145.911 61.5096 146.258 61.775 146.586 62.0584C146.915 62.3424 147.198 62.6372 147.439 62.9428C147.679 63.2463 147.825 63.5454 147.878 63.8352C147.981 64.5919 147.934 65.2741 147.737 65.8802C147.54 66.4871 147.258 67.0846 146.893 67.6749C146.644 68.0802 146.38 68.4805 146.099 68.8793C145.82 69.2774 145.481 69.6332 145.083 69.9453L144.106 70.2401L143.903 75.4607L140.878 75.3681C140.917 74.6444 140.955 74.0153 140.993 73.4809Z" fill="white"/>
<path d="M157.613 77.6581C157.758 77.7649 157.953 77.8101 158.198 77.7893C158.305 77.78 158.393 77.7606 158.462 77.7312C158.531 77.7011 158.6 77.6545 158.669 77.5928C158.737 77.5296 158.817 77.4536 158.905 77.3625L159.582 76.6646C159.703 76.5398 159.798 76.4099 159.865 76.2736C159.932 76.1373 159.972 76.0018 159.982 75.8669C159.992 75.7313 159.943 75.5943 159.835 75.4581C159.735 75.3275 159.654 75.2414 159.592 75.1962C159.53 75.1532 159.44 75.0736 159.324 74.9617L157.232 77.2155C157.341 77.4013 157.468 77.549 157.613 77.6581ZM153.48 81.8622C153.629 81.9662 153.827 82.0086 154.071 81.9885C154.194 81.9777 154.29 81.9634 154.36 81.9418C154.429 81.9196 154.495 81.8802 154.561 81.8214C154.625 81.7632 154.698 81.6922 154.779 81.609L155.432 80.9369C155.536 80.8293 155.622 80.7174 155.685 80.6019C155.749 80.4857 155.78 80.3666 155.777 80.244C155.776 80.1213 155.729 79.9915 155.637 79.853C155.562 79.7483 155.504 79.6723 155.462 79.6221C155.42 79.5747 155.384 79.5331 155.35 79.5016L155.15 79.3086L153.105 81.4132C153.207 81.6083 153.331 81.7582 153.48 81.8622ZM153.926 85.0421C153.444 84.8979 153.03 84.6562 152.682 84.3176C152.39 84.035 152.121 83.7811 151.872 83.5551C151.622 83.3299 151.345 83.0673 151.037 82.7689C150.805 82.5444 150.55 82.2869 150.271 82.0007C149.992 81.7137 149.666 81.3651 149.291 80.9527C150.542 79.6493 151.719 78.4119 152.823 77.2427C153.928 76.0714 154.985 74.9674 155.993 73.9295L156.816 73.0823C157.09 72.8011 157.364 72.5257 157.639 72.261L158.898 71.0136C159.197 71.2876 159.469 71.5307 159.713 71.7445C159.958 71.9576 160.213 72.1943 160.479 72.4518L160.827 72.7911C160.944 72.9037 161.065 73.0371 161.189 73.1899C161.423 73.4653 161.644 73.72 161.851 73.9546C162.059 74.1884 162.239 74.428 162.39 74.6719C162.541 74.915 162.657 75.1726 162.74 75.4466C162.821 75.7184 162.848 76.0355 162.821 76.3963C162.814 76.519 162.771 76.6796 162.692 76.8762C162.614 77.0749 162.506 77.2929 162.371 77.5325C162.234 77.7721 162.069 78.0217 161.872 78.2821C161.675 78.5432 161.459 78.795 161.225 79.0346C160.863 79.4083 160.46 79.7318 160.018 80.0044C159.576 80.277 159.109 80.4247 158.618 80.4484C158.644 81.0861 158.515 81.6721 158.232 82.2037C157.95 82.7359 157.618 83.1972 157.24 83.5881C157.005 83.8291 156.773 84.0393 156.542 84.2179C156.311 84.3972 156.099 84.5536 155.904 84.6877C155.678 84.8384 155.463 84.9675 155.259 85.078C154.851 85.1992 154.407 85.1863 153.926 85.0421Z" fill="white"/>
<path d="M165.825 92.6705C165.884 92.7709 165.961 92.8936 166.056 93.0392L166.361 93.5033C166.47 93.6683 166.569 93.8096 166.662 93.9287L167.272 93.4029C167.447 93.2479 167.628 93.0865 167.817 92.9216C168.006 92.7551 168.183 92.5973 168.348 92.4474C168.545 92.2638 168.765 92.0536 169.005 91.819C169.247 91.5845 169.467 91.3686 169.667 91.167L170.365 90.459C170.118 90.5659 169.833 90.6914 169.511 90.8335C169.188 90.9762 168.857 91.1247 168.515 91.2796C168.173 91.4338 167.839 91.5873 167.511 91.7416C167.182 91.8951 166.886 92.0299 166.623 92.1469C166.361 92.2645 166.147 92.3556 165.984 92.4216L165.747 92.5356C165.741 92.527 165.766 92.5715 165.825 92.6705ZM173.715 88.4261C173.799 88.5653 173.914 88.7461 174.061 88.9691L174.299 89.3321C174.388 89.467 174.49 89.6133 174.609 89.7718C173.954 90.6304 173.261 91.469 172.533 92.2874C171.802 93.1052 171.04 93.938 170.245 94.7844C169.452 95.6323 168.618 96.5081 167.744 97.4127C166.871 98.3186 165.964 99.2884 165.022 100.322L163.102 97.4284C163.293 97.234 163.446 97.0813 163.56 96.9715C163.675 96.8618 163.78 96.7585 163.875 96.6609C163.971 96.5641 164.072 96.4593 164.179 96.3482C164.286 96.237 164.421 96.0849 164.586 95.8934C164.492 95.7478 164.379 95.5835 164.251 95.3977C164.122 95.2119 163.994 95.0226 163.867 94.8296C163.74 94.6352 163.613 94.4487 163.488 94.2679C163.362 94.0872 163.255 93.9287 163.166 93.7931L161.168 94.4831L160.252 93.0894C160.12 92.8864 159.977 92.6648 159.827 92.4245C159.676 92.1842 159.489 91.8944 159.266 91.5551L171.878 87.0367L172.588 86.7577C172.716 86.9097 172.845 87.0869 172.98 87.2906L173.485 88.0596C173.553 88.1665 173.631 88.2884 173.715 88.4261Z" fill="white"/>
<path d="M182.229 105.177L172.509 109.267C172.597 109.494 172.678 109.72 172.753 109.945C172.828 110.171 172.908 110.404 172.995 110.643C173.081 110.883 173.175 111.142 173.276 111.418C173.376 111.696 173.497 112 173.637 112.33C173.3 112.485 173.007 112.611 172.759 112.707L171.431 113.221C171.236 113.295 171.014 113.394 170.764 113.516L168.603 108.022L168.316 107.09L178.836 102.802L181.08 101.916L182.229 105.177Z" fill="white"/>
<path d="M171.607 161.46C171.428 161.378 171.222 161.28 170.986 161.168C170.752 161.056 170.472 160.921 170.148 160.764C169.825 160.607 169.422 160.414 168.942 160.184L170.198 157.321L182.949 162.749L181.634 165.53C181.526 165.483 181.311 165.398 180.987 165.273C180.663 165.148 180.276 164.992 179.826 164.807C179.377 164.622 178.885 164.419 178.35 164.197C177.815 163.977 177.283 163.746 176.755 163.509C177.098 163.945 177.456 164.406 177.828 164.891C178.199 165.377 178.554 165.838 178.889 166.277C179.225 166.715 179.525 167.111 179.791 167.462C180.056 167.814 180.248 168.072 180.367 168.236C180.283 168.465 180.209 168.666 180.148 168.841C180.085 169.016 180.027 169.183 179.972 169.341C179.918 169.501 179.859 169.668 179.797 169.843C179.735 170.018 179.656 170.217 179.561 170.44L179.336 170.967C179.255 171.159 179.151 171.374 179.026 171.609C178.568 171 178.14 170.443 177.745 169.942C177.348 169.439 176.972 168.964 176.614 168.517C176.257 168.07 175.913 167.638 175.578 167.226C175.244 166.814 174.907 166.39 174.563 165.955C173.928 166.024 173.304 166.083 172.687 166.128C172.07 166.173 171.433 166.214 170.776 166.249C170.12 166.283 169.433 166.309 168.715 166.324C167.997 166.34 167.218 166.346 166.378 166.34L167.734 163.067C168.221 163.073 168.603 163.078 168.878 163.081C169.153 163.086 169.389 163.086 169.587 163.081C169.782 163.077 169.967 163.067 170.137 163.052C170.307 163.035 170.526 163.023 170.795 163.011L173.012 162.86L172.163 161.706C171.971 161.624 171.786 161.542 171.607 161.46Z" fill="white"/>
<path d="M166.686 181.305C166.32 181.818 165.94 182.305 165.544 182.762C165.301 182.604 165.087 182.466 164.901 182.348C164.714 182.23 164.536 182.106 164.365 181.978C164.193 181.849 164.022 181.706 163.85 181.549C163.678 181.391 163.485 181.201 163.274 180.979L165.301 178.095C164.986 177.9 164.683 177.703 164.392 177.503C164.1 177.303 163.797 177.106 163.481 176.91C163.279 177.234 163.062 177.57 162.829 177.917C162.598 178.263 162.366 178.6 162.135 178.925C161.903 179.25 161.678 179.558 161.456 179.849C161.236 180.139 161.036 180.392 160.857 180.604C160.622 180.395 160.41 180.213 160.222 180.058C160.034 179.902 159.854 179.757 159.681 179.62C159.508 179.483 159.33 179.339 159.146 179.188C158.963 179.037 158.759 178.859 158.533 178.656C158.871 178.1 159.201 177.576 159.525 177.081C159.848 176.587 160.177 176.093 160.513 175.6C160.849 175.107 161.193 174.603 161.546 174.086C161.898 173.57 162.273 173.012 162.67 172.414C163.341 172.848 163.999 173.287 164.643 173.731C165.287 174.174 165.935 174.625 166.586 175.089C167.794 175.946 168.984 176.806 170.155 177.666C171.326 178.526 172.512 179.39 173.714 180.258C173.333 180.854 172.978 181.404 172.648 181.908C172.318 182.412 171.997 182.908 171.686 183.397C171.374 183.886 171.046 184.387 170.702 184.903C170.357 185.418 169.977 185.988 169.56 186.615C169.332 186.454 169.126 186.314 168.941 186.197C168.754 186.079 168.568 185.956 168.38 185.831C168.193 185.705 167.99 185.571 167.77 185.43C167.552 185.288 167.284 185.12 166.969 184.924L169.428 181.283L167.685 179.958C167.384 180.342 167.051 180.79 166.686 181.305Z" fill="white"/>
<path d="M155.008 192.43C154.912 192.565 154.852 192.688 154.83 192.803C154.808 192.932 154.83 193.053 154.899 193.163C155.268 193.812 155.651 194.328 156.047 194.713C156.441 195.096 156.784 195.353 157.072 195.482C157.217 195.538 157.358 195.539 157.496 195.484C157.634 195.43 157.757 195.357 157.863 195.269C157.97 195.18 158.059 195.088 158.129 194.993C158.2 194.898 158.238 194.847 158.248 194.838C158.256 194.832 158.159 194.72 157.956 194.505C157.754 194.29 157.508 194.032 157.22 193.731C156.931 193.43 156.631 193.121 156.318 192.802C156.006 192.483 155.748 192.221 155.546 192.015C155.284 192.157 155.106 192.296 155.008 192.43ZM149.506 189.192C150.009 189.377 150.465 189.552 150.875 189.72C151.285 189.888 151.672 190.056 152.036 190.226C152.401 190.395 152.784 190.58 153.184 190.78L153.878 190.15C153.327 189.525 152.83 188.96 152.388 188.454C152.193 188.24 152.005 188.028 151.823 187.818C151.641 187.609 151.471 187.419 151.316 187.247L150.768 186.642L151.205 186.245C151.316 186.144 151.415 186.05 151.502 185.964C151.587 185.879 151.669 185.801 151.746 185.73L151.978 185.521C152.098 185.412 152.239 185.289 152.402 185.149C152.565 185.009 152.787 184.819 153.07 184.579C154.221 185.832 155.333 187.032 156.403 188.177C157.475 189.324 158.546 190.489 159.619 191.673C160.522 192.668 161.438 193.704 162.369 194.782C162.169 194.993 161.959 195.2 161.736 195.403L160.861 196.196C160.613 196.422 160.319 196.675 159.982 196.958C159.644 197.24 159.293 197.499 158.929 197.736C158.565 197.972 158.203 198.164 157.844 198.31C157.484 198.456 157.157 198.514 156.864 198.483C156.107 198.372 155.465 198.139 154.937 197.781C154.41 197.423 153.913 196.988 153.446 196.472C153.127 196.121 152.815 195.756 152.51 195.375C152.205 194.995 151.957 194.571 151.766 194.104L151.756 193.082L146.795 191.439L147.723 188.558C148.408 188.797 149.002 189.008 149.506 189.192Z" fill="white"/>
<path d="M137.155 202.897C136.778 202.581 136.477 202.226 136.25 201.835C136.002 201.404 135.846 200.915 135.784 200.37C135.723 199.823 135.776 199.187 135.944 198.461C136.089 198.11 136.262 197.803 136.464 197.539C136.665 197.275 136.915 197.024 137.212 196.785C137.509 196.546 137.865 196.301 138.279 196.047C138.695 195.794 139.188 195.502 139.76 195.172L140.527 194.729L141.931 197.227C141.776 197.329 141.626 197.427 141.478 197.519C141.331 197.61 141.155 197.722 140.95 197.854C140.765 197.975 140.575 198.095 140.377 198.215C140.179 198.336 139.999 198.47 139.836 198.618C139.675 198.765 139.545 198.927 139.445 199.105C139.348 199.282 139.306 199.486 139.32 199.719C139.374 199.929 139.442 200.102 139.524 200.244C139.656 200.474 139.824 200.665 140.025 200.816C140.226 200.967 140.446 201.094 140.686 201.196C140.925 201.298 141.176 201.384 141.437 201.454C141.698 201.523 141.951 201.596 142.193 201.668C142.717 201.834 143.167 202.012 143.544 202.201C143.922 202.391 144.242 202.678 144.504 203.061C144.578 203.166 144.648 203.271 144.717 203.379C144.786 203.487 144.855 203.6 144.924 203.72C145.064 203.96 145.187 204.221 145.296 204.5C145.403 204.778 145.475 205.07 145.511 205.378C145.549 205.684 145.538 206.012 145.478 206.359C145.419 206.707 145.284 207.07 145.074 207.446C144.961 207.645 144.82 207.85 144.647 208.063C144.477 208.276 144.261 208.501 144.004 208.736C143.746 208.973 143.436 209.228 143.074 209.505C142.712 209.781 142.284 210.082 141.79 210.408L139.885 208.118C140.148 207.927 140.361 207.757 140.523 207.61C140.686 207.462 140.826 207.342 140.944 207.245C141.084 207.139 141.217 206.998 141.343 206.824C141.471 206.65 141.539 206.494 141.552 206.352C141.565 206.212 141.552 206.052 141.514 205.872C141.478 205.692 141.41 205.518 141.312 205.348C141.242 205.227 141.155 205.118 141.051 205.017C140.945 204.917 140.824 204.841 140.686 204.787C140.299 204.649 139.92 204.494 139.553 204.318C139.183 204.144 138.825 203.964 138.477 203.778C137.973 203.507 137.532 203.213 137.155 202.897Z" fill="white"/>
<path d="M125.233 203.307C125.333 203.627 125.436 203.96 125.544 204.302C125.651 204.645 125.764 205.003 125.883 205.379C126.001 205.754 126.131 206.156 126.272 206.584C126.451 207.16 126.616 207.682 126.765 208.15C126.914 208.618 127.058 209.071 127.196 209.508C127.335 209.943 127.481 210.385 127.636 210.834C127.791 211.283 127.97 211.779 128.174 212.321C128.357 212.247 128.542 212.177 128.727 212.11C128.912 212.044 129.114 211.973 129.334 211.9L130.9 211.382C130.947 211.561 130.995 211.721 131.043 211.865L131.19 212.31C131.281 212.585 131.366 212.833 131.447 213.056C131.526 213.28 131.603 213.501 131.675 213.721L131.785 214.052C131.822 214.161 131.854 214.279 131.883 214.404C131.231 214.643 130.619 214.864 130.045 215.067C129.471 215.269 128.91 215.461 128.36 215.642C127.966 215.774 127.575 215.901 127.188 216.023C126.801 216.145 126.404 216.273 125.998 216.409C125.591 216.542 125.17 216.68 124.734 216.817C124.298 216.956 123.839 217.104 123.355 217.265C123.289 217.104 123.231 216.955 123.18 216.82C123.129 216.684 123.08 216.546 123.033 216.403C122.938 216.117 122.844 215.815 122.751 215.498C122.659 215.182 122.525 214.76 122.349 214.232C122.602 214.148 122.829 214.07 123.032 213.998C123.233 213.925 123.432 213.855 123.63 213.79L124.916 213.364C124.635 212.554 124.388 211.808 124.173 211.123C123.958 210.437 123.736 209.748 123.507 209.057C123.276 208.365 123.004 207.549 122.687 206.611C122.37 205.674 122.024 204.603 121.649 203.398L124.941 202.343C125.036 202.665 125.132 202.988 125.233 203.307Z" fill="white"/>
<path d="M107.644 214.632C107.017 214.699 106.401 214.736 105.796 214.742C105.753 214.456 105.715 214.204 105.68 213.987C105.645 213.77 105.619 213.554 105.601 213.34C105.584 213.126 105.578 212.904 105.582 212.67C105.586 212.436 105.6 212.167 105.626 211.862L109.129 211.467C109.066 211.101 109.013 210.743 108.97 210.392C108.926 210.042 108.873 209.684 108.81 209.319C108.433 209.383 108.038 209.443 107.624 209.498C107.211 209.555 106.806 209.604 106.408 209.646C106.012 209.689 105.631 209.725 105.267 209.752C104.903 209.78 104.582 209.798 104.303 209.804C104.304 209.489 104.301 209.21 104.291 208.967C104.283 208.723 104.273 208.491 104.26 208.272C104.248 208.052 104.238 207.822 104.23 207.586C104.222 207.347 104.219 207.076 104.222 206.774C104.861 206.658 105.473 206.557 106.058 206.47C106.642 206.384 107.231 206.304 107.822 206.228C108.414 206.153 109.02 206.076 109.64 205.997C110.26 205.919 110.926 205.83 111.637 205.73C111.757 206.52 111.865 207.303 111.961 208.079C112.055 208.855 112.146 209.64 112.232 210.433C112.39 211.907 112.536 213.367 112.669 214.815C112.801 216.261 112.942 217.723 113.089 219.196C112.39 219.307 111.743 219.406 111.147 219.493C110.551 219.581 109.966 219.669 109.394 219.761C108.822 219.851 108.228 219.939 107.614 220.022C107 220.106 106.32 220.2 105.575 220.303C105.545 220.027 105.512 219.781 105.477 219.563C105.443 219.345 105.41 219.125 105.38 218.901C105.35 218.677 105.316 218.436 105.276 218.179C105.237 217.921 105.185 217.609 105.122 217.244L109.48 216.669L109.315 214.485C108.828 214.516 108.272 214.563 107.644 214.632Z" fill="white"/>
<path d="M95.2295 217.444C95.1929 217.837 95.1549 218.246 95.1162 218.672C95.0774 219.099 95.0208 219.634 94.9469 220.279C94.8077 220.28 94.68 220.278 94.5637 220.275C94.4482 220.272 94.3327 220.266 94.2172 220.257C93.9518 220.237 93.6956 220.207 93.4488 220.171C93.202 220.134 92.8935 220.101 92.5241 220.073L92.1776 220.045C92.0506 220.035 91.9121 220.03 91.7607 220.03C91.864 218.121 91.9795 216.273 92.1065 214.483C92.2349 212.694 92.372 210.874 92.5155 209.029L92.735 206.222L96.0847 206.38C96.0029 207.581 95.9204 208.712 95.8379 209.775L95.3371 216.181C95.3027 216.632 95.2661 217.052 95.2295 217.444Z" fill="white"/>
<path d="M77.5264 211.81C76.9165 211.646 76.3289 211.459 75.7622 211.247C75.826 210.964 75.8806 210.715 75.9265 210.5C75.9724 210.284 76.0255 210.074 76.0872 209.868C76.1474 209.663 76.2228 209.452 76.3103 209.236C76.3985 209.02 76.509 208.775 76.6432 208.499L80.0524 209.394C80.127 209.03 80.2059 208.677 80.292 208.334C80.3781 207.991 80.4578 207.638 80.531 207.275C80.1565 207.199 79.7655 207.111 79.3608 207.015C78.954 206.918 78.5587 206.818 78.1727 206.714C77.7868 206.611 77.4194 206.506 77.0693 206.401C76.7206 206.296 76.4143 206.196 76.1525 206.101C76.2665 205.808 76.3634 205.547 76.443 205.316C76.5234 205.085 76.5973 204.866 76.6654 204.656C76.7336 204.447 76.8067 204.23 76.8842 204.005C76.9632 203.781 77.0586 203.527 77.1691 203.245C77.8083 203.368 78.4145 203.495 78.9921 203.626C79.5681 203.755 80.1457 203.893 80.7254 204.036C81.3044 204.179 81.8969 204.326 82.5039 204.477C83.1108 204.628 83.7644 204.785 84.4639 204.948C84.2903 205.728 84.1081 206.499 83.9172 207.256C83.7264 208.014 83.5269 208.778 83.3203 209.551C82.9365 210.982 82.5448 212.396 82.1466 213.794C81.7484 215.191 81.351 216.604 80.9564 218.033C80.2648 217.883 79.6256 217.742 79.038 217.609C78.4504 217.475 77.8728 217.348 77.3061 217.225C76.7393 217.104 76.1553 216.971 75.552 216.827C74.9493 216.684 74.2814 216.525 73.5482 216.353C73.6206 216.085 73.6795 215.842 73.7247 215.627C73.7713 215.412 73.8201 215.195 73.8732 214.975C73.9256 214.755 73.9808 214.518 74.0368 214.263C74.0927 214.009 74.158 213.7 74.2312 213.336L78.5028 214.372L79.1362 212.276C78.6728 212.128 78.1362 211.972 77.5264 211.81Z" fill="white"/>
<path d="M63.067 204.762C62.907 204.718 62.77 204.707 62.6559 204.725C62.526 204.75 62.422 204.813 62.3424 204.915C61.8639 205.489 61.5138 206.028 61.2921 206.533C61.0704 207.037 60.9499 207.447 60.9298 207.763C60.9283 207.917 60.9771 208.05 61.0768 208.16C61.1758 208.271 61.2863 208.36 61.4068 208.428C61.5274 208.498 61.6451 208.548 61.7584 208.581C61.8718 208.614 61.9334 208.632 61.9442 208.637C61.9542 208.643 62.0246 208.513 62.1551 208.248C62.285 207.983 62.4414 207.663 62.6215 207.287C62.803 206.912 62.9881 206.523 63.1775 206.12C63.3662 205.715 63.5226 205.382 63.6452 205.119C63.4193 204.925 63.227 204.806 63.067 204.762ZM64.1754 198.475C64.1797 199.011 64.174 199.5 64.1597 199.942C64.1467 200.385 64.1245 200.806 64.0929 201.207C64.0621 201.608 64.0226 202.031 63.9753 202.475L64.8082 202.905C65.2014 202.172 65.5572 201.508 65.8757 200.917C66.0085 200.659 66.1412 200.409 66.2739 200.165C66.4059 199.921 66.5257 199.695 66.6319 199.49L67.0071 198.765L67.5316 199.036C67.665 199.104 67.787 199.165 67.8975 199.216C68.0087 199.267 68.1098 199.316 68.2031 199.364L68.48 199.507C68.6242 199.581 68.7907 199.67 68.9779 199.774C69.1652 199.877 69.4206 200.02 69.7449 200.199C68.9736 201.716 68.239 203.176 67.5388 204.58C66.84 205.985 66.1232 207.396 65.39 208.815C64.7738 210.007 64.1238 211.229 63.4386 212.478C63.171 212.367 62.9027 212.241 62.6358 212.101L61.5869 211.56C61.2885 211.406 60.9477 211.22 60.5646 211.003C60.1822 210.786 59.8163 210.548 59.4676 210.29C59.119 210.032 58.8126 209.76 58.55 209.474C58.2875 209.188 58.1196 208.902 58.045 208.617C57.8843 207.869 57.8799 207.186 58.0299 206.567C58.1806 205.947 58.4159 205.329 58.7344 204.712C58.9518 204.29 59.1857 203.871 59.4346 203.452C59.6828 203.034 59.9935 202.654 60.3651 202.311L61.3179 201.943L61.1235 196.722L64.1467 196.584C64.1625 197.309 64.1726 197.939 64.1754 198.475Z" fill="white"/>
<path d="M51.0857 191.068C50.9293 190.975 50.7299 190.949 50.4866 190.987C50.3647 191.007 50.2707 191.029 50.2033 191.055C50.1358 191.083 50.072 191.128 50.0124 191.19C49.9514 191.253 49.8847 191.329 49.8115 191.418L49.2103 192.139C49.1142 192.254 49.0382 192.372 48.9829 192.492C48.9284 192.612 48.9069 192.733 48.9183 192.856C48.9291 192.979 48.9858 193.105 49.0884 193.235C49.1709 193.334 49.2354 193.406 49.2806 193.451C49.3258 193.497 49.366 193.534 49.4012 193.564L49.615 193.742L51.4939 191.487C51.3777 191.3 51.2428 191.16 51.0857 191.068ZM47.2847 195.574C47.1319 195.478 46.9346 195.448 46.6914 195.487C46.5867 195.505 46.4999 195.531 46.4332 195.566C46.3671 195.6 46.3011 195.652 46.238 195.719C46.1734 195.787 46.1017 195.869 46.0192 195.967L45.3972 196.715C45.2867 196.848 45.202 196.985 45.1454 197.125C45.088 197.267 45.06 197.405 45.06 197.54C45.06 197.676 45.1195 197.808 45.2379 197.937C45.347 198.059 45.4345 198.138 45.4998 198.179C45.5651 198.218 45.6598 198.29 45.7839 198.393L47.698 195.987C47.5753 195.809 47.4376 195.672 47.2847 195.574ZM50.3998 187.931C50.8906 188.038 51.3225 188.247 51.6962 188.558C52.0069 188.819 52.296 189.05 52.5615 189.257C52.8262 189.463 53.1239 189.703 53.4525 189.977C53.7015 190.185 53.9755 190.421 54.2754 190.686C54.5753 190.95 54.9268 191.273 55.3322 191.655C54.1843 193.05 53.1046 194.374 52.0923 195.624C51.08 196.876 50.1107 198.056 49.1845 199.168L48.4283 200.076C48.1758 200.378 47.924 200.672 47.67 200.959L46.5099 202.297C46.1914 202.047 45.9015 201.824 45.6411 201.63C45.3807 201.436 45.1088 201.22 44.8239 200.982L44.4509 200.672C44.326 200.568 44.1955 200.444 44.0592 200.301C43.8059 200.045 43.5663 199.807 43.341 199.59C43.1157 199.371 42.9177 199.147 42.7491 198.916C42.5805 198.684 42.4449 198.436 42.3416 198.17C42.2405 197.904 42.1888 197.59 42.1888 197.229C42.1859 197.105 42.2161 196.942 42.2799 196.739C42.3438 196.536 42.4335 196.31 42.5511 196.061C42.6688 195.812 42.8151 195.55 42.9916 195.275C43.1674 195 43.3633 194.734 43.5785 194.476C43.9121 194.076 44.288 193.723 44.7084 193.418C45.1289 193.112 45.583 192.929 46.0708 192.869C45.9962 192.234 46.0795 191.641 46.3212 191.088C46.563 190.536 46.8579 190.051 47.2065 189.633C47.4225 189.376 47.6363 189.148 47.8537 188.952C48.0703 188.755 48.2698 188.582 48.4534 188.435C48.6687 188.268 48.8739 188.122 49.0676 187.997C49.465 187.845 49.9084 187.824 50.3998 187.931Z" fill="white"/>
<path d="M37.954 181.23C37.888 181.134 37.8012 181.017 37.6958 180.881L37.3557 180.44C37.2359 180.285 37.1254 180.15 37.025 180.039L36.456 180.609C36.2939 180.778 36.1246 180.952 35.9488 181.132C35.773 181.312 35.608 181.482 35.4559 181.644C35.273 181.842 35.07 182.069 34.8483 182.321C34.6259 182.573 34.4221 182.805 34.2377 183.022L33.5949 183.781C33.8345 183.654 34.1093 183.509 34.4193 183.342C34.7299 183.175 35.0491 183.003 35.3777 182.822C35.7063 182.641 36.0284 182.463 36.3448 182.284C36.6605 182.106 36.9453 181.949 37.1979 181.812C37.4511 181.677 37.6563 181.568 37.8156 181.49L38.043 181.359C38.0495 181.367 38.02 181.324 37.954 181.23ZM30.4102 186.062C30.3162 185.93 30.1871 185.758 30.0242 185.548L29.7595 185.204C29.6605 185.075 29.5457 184.937 29.4173 184.788C30.0049 183.882 30.6312 182.994 31.2962 182.122C31.9606 181.251 32.6579 180.363 33.3854 179.458C34.1129 178.553 34.8777 177.616 35.6791 176.647C36.4812 175.678 37.3119 174.642 38.1729 173.539L40.3072 176.279C40.1322 176.487 39.9908 176.65 39.8847 176.769C39.7792 176.886 39.6816 176.998 39.5941 177.102C39.5066 177.207 39.414 177.319 39.3157 177.438C39.2181 177.557 39.094 177.718 38.9441 177.922C39.0496 178.06 39.1744 178.216 39.3157 178.391C39.4592 178.566 39.6005 178.745 39.7426 178.929C39.8832 179.112 40.0245 179.289 40.163 179.459C40.3015 179.63 40.4206 179.78 40.5196 179.908L42.4602 179.068L43.4783 180.388C43.6275 180.581 43.7861 180.791 43.9539 181.019C44.1232 181.247 44.3313 181.522 44.5788 181.842L32.348 187.309L31.6614 187.64C31.5223 187.498 31.3788 187.332 31.231 187.138L30.6685 186.411C30.5903 186.31 30.5049 186.193 30.4102 186.062Z" fill="white"/>
<path d="M20.6459 170.008L30.0257 165.19C29.9216 164.971 29.8233 164.751 29.7315 164.532C29.6397 164.313 29.5414 164.087 29.4374 163.855C29.3326 163.622 29.22 163.372 29.098 163.103C28.9761 162.834 28.8333 162.54 28.6683 162.221C28.9926 162.041 29.2745 161.894 29.5148 161.779L30.8005 161.166C30.9885 161.076 31.203 160.962 31.444 160.82L34.0167 166.135L34.3726 167.042L24.2109 172.117L22.0392 173.172L20.6459 170.008Z" fill="white"/>
<path d="M8.79214 192.356L9.28 193.045L4.951 196.109L12.3011 197.31L12.8578 198.097L5.56584 196.874L4.21492 204.532L3.6216 203.696L4.92662 196.127L0.488571 199.27L0 198.581L8.79214 192.356Z" fill="#231F20"/>
<path d="M14.8055 200.527L18.8275 205.234L18.3009 205.684L14.8271 201.618L11.6295 204.347L14.4483 207.647L13.9224 208.097L11.1029 204.797L7.68861 207.714L11.3382 211.987L10.8116 212.437L6.61389 207.522L14.8055 200.527Z" fill="#231F20"/>
<path d="M19.7345 213.566C20.9763 214.775 22.1838 215.025 23.2771 213.903L23.3195 213.859C24.476 212.672 24.0663 211.516 22.8682 210.349L21.3243 208.846L18.1905 212.062L19.7345 213.566ZM21.2023 207.76L23.3195 209.821C24.8196 211.282 25.3749 212.958 23.9236 214.448L23.8819 214.491C22.63 215.776 21.2102 215.55 19.8966 214.586L18.8778 220.535L18.2092 219.883L19.2179 214.01L17.7178 212.548L14.2899 216.066L13.6851 215.478L21.2023 207.76Z" fill="#231F20"/>
<path d="M23.138 220.181L23.783 220.703C23.072 221.871 22.9292 223.247 24.6769 224.657C25.9898 225.717 27.4613 225.646 28.2942 224.614C29.2405 223.441 29.0088 222.577 27.5287 220.957C25.9181 219.21 25.5292 217.891 26.5989 216.566C27.65 215.264 29.4371 215.235 31.0083 216.503C32.5672 217.761 32.893 219.301 32.0019 220.79L31.4036 220.307C32.0464 219.102 31.8154 218.044 30.5721 217.042C29.2821 216.001 28.0603 216.003 27.2475 217.011C26.5085 217.925 26.5695 218.787 28.1077 220.455C29.7563 222.251 30.2334 223.507 28.965 225.078C27.8953 226.403 25.9295 226.56 24.2414 225.197C22.1659 223.522 22.2068 221.695 23.138 220.181Z" fill="#231F20"/>
<path d="M37.808 222.565L35.0336 220.698L35.4203 220.124L41.657 224.318L41.2703 224.893L38.4953 223.028L32.8699 231.387L32.1826 230.925L37.808 222.565Z" fill="#231F20"/>
<path d="M44.5542 231.558C45.9948 232.348 47.0293 232.09 47.6801 230.9L47.7102 230.848C48.3831 229.619 47.9211 228.644 46.5336 227.884L44.5908 226.82L42.5848 230.48L44.5542 231.558ZM42.4048 236.359C43.8841 237.17 45.0212 236.882 45.738 235.574L45.7681 235.521C46.4769 234.226 46.0063 233.11 44.3548 232.204L42.267 231.062L40.0659 235.077L42.4048 236.359ZM44.1897 225.827L46.8722 227.297C48.5381 228.209 49.371 229.541 48.4298 231.259L48.4004 231.312C47.8278 232.356 46.8823 232.765 45.6662 232.476C46.9354 233.516 47.1836 234.63 46.4812 235.912L46.4525 235.965C45.5041 237.696 43.8891 237.945 42.092 236.961L39.0127 235.274L44.1897 225.827Z" fill="#231F20"/>
<path d="M51.5968 237.271L55.6116 238.997L56.0141 232.528L51.5968 237.271ZM55.8031 231.682L56.8276 232.122L56.131 243.549L55.3555 243.216L55.565 239.714L51.1075 237.799L48.7242 240.366L47.9903 240.05L55.8031 231.682Z" fill="#231F20"/>
<path d="M63.1524 234.629L63.9574 234.885L60.8968 244.486L65.8772 246.074L65.6663 246.734L59.8824 244.891L63.1524 234.629Z" fill="#231F20"/>
<path d="M76.6821 238.519L77.8709 238.717L80.092 248.466L85.3759 239.97L86.5346 240.164L84.7611 250.788L83.944 250.652L85.5445 241.068L79.9457 249.984L79.6788 249.94L77.2811 239.688L75.6806 249.272L74.9086 249.144L76.6821 238.519Z" fill="#231F20"/>
<path d="M90.4118 240.485L96.5925 240.835L96.553 241.527L91.2139 241.223L90.9764 245.419L95.3068 245.666L95.2681 246.357L90.9362 246.111L90.6815 250.592L96.2911 250.91L96.2524 251.602L89.7998 251.235L90.4118 240.485Z" fill="#231F20"/>
<path d="M102.391 241.476L99.0488 241.581L99.0273 240.888L106.54 240.654L106.562 241.346L103.219 241.45L103.532 251.522L102.704 251.547L102.391 241.476Z" fill="#231F20"/>
<path d="M119.622 249.175C121.284 248.891 121.998 247.959 121.746 246.489L121.737 246.431C121.488 244.975 120.426 244.392 118.568 244.708L116.222 245.109L116.993 249.623L119.622 249.175ZM118.324 244.078C119.942 243.802 120.593 242.957 120.365 241.621L120.354 241.562C120.119 240.181 119.151 239.704 117.592 239.97L115.408 240.343L116.11 244.456L118.324 244.078ZM114.477 239.813L117.493 239.299C119.364 238.981 120.844 239.506 121.174 241.437L121.185 241.496C121.384 242.67 120.897 243.578 119.764 244.108C121.404 244.133 122.293 244.853 122.538 246.293L122.548 246.352C122.88 248.297 121.77 249.495 119.751 249.841L116.289 250.431L114.477 239.813Z" fill="#231F20"/>
<path d="M124.525 237.897L125.341 237.682L127.911 247.431L132.968 246.098L133.145 246.768L127.271 248.316L124.525 237.897Z" fill="#231F20"/>
<path d="M143.068 237.62L143.027 237.507C142.117 235.049 139.767 233.687 137.294 234.601C134.821 235.516 133.888 238.029 134.829 240.571L134.871 240.685C135.822 243.255 138.312 244.471 140.656 243.603C143.073 242.71 144.026 240.205 143.068 237.62ZM134.07 240.997L134.029 240.884C132.968 238.016 134.213 235.002 137.054 233.952C139.907 232.895 142.802 234.379 143.852 237.218L143.894 237.331C144.95 240.185 143.728 243.222 140.902 244.268C138.02 245.333 135.116 243.821 134.07 240.997Z" fill="#231F20"/>
<path d="M144.959 230.848L150.512 228.113L150.819 228.734L146.021 231.097L147.879 234.867L151.772 232.949L152.077 233.571L148.185 235.488L150.17 239.514L155.21 237.03L155.516 237.651L149.72 240.508L144.959 230.848Z" fill="#231F20"/>
<path d="M153.515 226.53L154.532 225.884L162.692 231.665L160.96 221.812L161.952 221.183L167.72 230.281L167.02 230.725L161.817 222.517L163.596 232.894L163.367 233.039L154.741 227.001L159.944 235.209L159.281 235.628L153.515 226.53Z" fill="#231F20"/>
<path d="M170.897 227.749L169.928 215.837L165.135 219.662L164.702 219.121L170.415 214.562L170.509 214.679L171.538 226.524L176.615 222.474L177.066 223.039L171 227.88L170.897 227.749Z" fill="#231F20"/>
<path d="M178.403 216.474L181.539 213.433L175.724 210.574L178.403 216.474ZM174.862 210.444L175.664 209.668L185.941 214.705L185.335 215.292L182.184 213.752L178.701 217.128L180.154 220.315L179.582 220.871L174.862 210.444Z" fill="#231F20"/>
<path d="M186.504 208.119L189.32 204.779L183.246 202.517L186.504 208.119ZM182.377 202.474L183.096 201.622L193.826 205.602L193.282 206.247L189.993 205.031L186.868 208.74L188.633 211.763L188.118 212.374L182.377 202.474Z" fill="#231F20"/>
<path d="M197.221 199.68C198.94 197.15 198.182 194.833 195.913 193.292L195.813 193.224C193.618 191.734 191.224 191.801 189.445 194.419L188.387 195.977L196.155 201.25L197.221 199.68ZM187.34 196.286L188.914 193.967C190.912 191.026 193.824 190.816 196.305 192.501L196.416 192.577C198.884 194.253 199.877 197.003 197.81 200.045L196.253 202.339L187.34 196.286Z" fill="#231F20"/>
</svg>
